<?xml version="1.0" standalone="no"?>
<!DOCTYPE svg PUBLIC "-//W3C//DTD SVG 20010904//EN"
 "http://www.w3.org/TR/2001/REC-SVG-20010904/DTD/svg10.dtd">
<svg version="1.0" xmlns="http://www.w3.org/2000/svg"
 width="500.000000pt" height="500.000000pt" viewBox="0 0 500.000000 500.000000"
 preserveAspectRatio="xMidYMid meet">
<metadata>
Created by potrace 1.14, written by Peter Selinger 2001-2017
</metadata>
<g transform="translate(0.000000,500.000000) scale(0.100000,-0.100000)"
fill="#000000" stroke="none">
<path d="M0 2500 l0 -2500 1645 0 1645 0 -2 72 c-2 72 18 179 47 243 12 27 13
23 10 -55 -3 -47 -9 -116 -14 -155 -14 -99 -14 -105 9 -105 13 0 20 7 20 20 0
10 7 23 16 28 10 5 12 12 7 15 -7 4 -7 21 -3 44 31 146 38 188 34 192 -2 2 0
9 5 15 6 6 13 45 16 86 3 40 8 76 10 79 1 3 6 27 9 52 6 47 -6 99 -22 99 -12
0 -37 -96 -47 -173 -4 -35 -25 -107 -31 -107 -8 0 7 102 18 123 6 12 6 23 -1
31 -8 10 -7 25 4 56 8 23 15 61 15 84 1 40 18 76 37 76 5 0 20 11 33 25 13 14
33 25 45 25 28 0 47 -49 35 -91 -13 -44 -34 -89 -41 -89 -12 0 -29 -61 -29
-99 1 -54 -41 -363 -51 -383 -5 -10 -9 -38 -9 -63 l0 -45 795 0 795 0 0 2500
0 2500 -2500 0 -2500 0 0 -2500z m2405 2050 c-3 -5 -16 -15 -28 -21 -19 -9
-19 -8 3 10 28 23 34 26 25 11z m165 -39 c0 -5 -6 -12 -12 -14 -7 -3 -1 -6 15
-6 20 -1 27 -6 27 -21 0 -15 -7 -20 -26 -20 -20 0 -25 4 -20 16 4 10 0 15 -12
13 -41 -4 -46 0 -27 21 18 20 55 28 55 11z m245 -39 c-26 -23 -85 -52 -85 -42
0 6 19 20 43 30 47 22 56 24 42 12z m150 -12 c3 -5 -1 -10 -9 -10 -9 0 -16 5
-16 10 0 6 4 10 9 10 6 0 13 -4 16 -10z m-330 -10 c-3 -5 -12 -10 -18 -10 -7
0 -6 4 3 10 19 12 23 12 15 0z m85 1 c0 -11 -49 -51 -63 -51 -5 0 -4 7 3 15 7
8 9 15 5 15 -4 0 -2 7 5 15 14 16 50 21 50 6z m147 -7 c3 -9 -5 -27 -22 -44
l-27 -28 -20 20 c-22 22 -18 30 24 53 31 18 38 18 45 -1z m38 -4 c-3 -5 -11
-10 -16 -10 -6 0 -7 5 -4 10 3 6 11 10 16 10 6 0 7 -4 4 -10z m215 -84 c0 -2
-8 -10 -17 -17 -16 -13 -17 -12 -4 4 13 16 21 21 21 13z m195 -16 c-3 -5 -13
-10 -21 -10 -8 0 -14 5 -14 10 0 6 9 10 21 10 11 0 17 -4 14 -10z m55 -10 c0
-5 -6 -10 -14 -10 -8 0 -18 5 -21 10 -3 6 3 10 14 10 12 0 21 -4 21 -10z
m-470 -45 c-7 -9 -15 -13 -17 -11 -7 7 7 26 19 26 6 0 6 -6 -2 -15z m241 -122
c11 3 19 1 19 -5 0 -5 15 -8 32 -6 26 2 35 -2 43 -19 5 -13 15 -23 22 -23 12
0 17 -18 14 -46 -1 -7 6 -15 15 -18 9 -3 14 -13 10 -21 -3 -8 1 -27 9 -42 8
-15 15 -33 15 -40 0 -6 12 -21 28 -32 22 -17 24 -22 12 -30 -12 -8 -11 -14 8
-34 13 -13 22 -28 21 -33 -1 -5 3 -20 9 -34 6 -14 11 -18 11 -11 1 13 3 13 14
2 10 -11 10 -14 0 -18 -7 -3 -13 -9 -13 -14 0 -6 3 -8 8 -5 4 2 16 -2 27 -10
10 -8 15 -14 10 -14 -5 0 1 -9 13 -20 26 -25 30 -52 5 -43 -14 5 -15 1 -10
-25 4 -18 2 -32 -3 -32 -5 0 -3 -12 5 -27 34 -65 26 -223 -10 -209 -10 3 -13
-20 -13 -92 -1 -85 1 -93 11 -67 17 42 95 115 124 115 30 0 48 -40 63 -145 9
-66 9 -92 -4 -151 -8 -39 -18 -102 -22 -140 -4 -38 -19 -107 -35 -154 -15 -47
-30 -106 -34 -132 -7 -53 -45 -108 -75 -108 -26 0 -29 -7 -40 -115 -13 -122
-69 -337 -94 -363 -4 -4 -14 -22 -22 -40 -7 -19 -23 -36 -34 -39 -15 -4 -19
-11 -15 -22 27 -65 11 -169 -36 -237 -29 -42 -148 -136 -196 -155 -13 -5 -23
-13 -23 -19 0 -6 -8 -14 -17 -18 -10 -4 -43 -23 -73 -43 -56 -37 -118 -69
-204 -108 -56 -25 -179 -40 -190 -23 -10 17 87 62 158 73 35 6 70 18 82 30 11
10 25 19 31 19 6 0 17 7 24 16 11 13 10 17 -4 25 -9 5 -14 16 -11 24 4 9 0 15
-9 15 -9 0 -17 -8 -19 -17 -3 -15 -4 -15 -19 -1 -9 10 -29 15 -49 14 -25 -2
-39 4 -55 22 -24 28 -47 25 -84 -9 -13 -12 -26 -18 -30 -13 -3 5 -19 15 -34
22 -17 7 -27 18 -24 25 3 7 -1 21 -8 30 -11 15 -10 46 3 100 1 4 2 20 2 35 0
34 31 52 90 52 21 0 42 5 46 11 3 6 15 8 27 5 15 -3 30 5 54 32 39 42 63 79
43 67 -7 -4 -16 -1 -21 6 -5 9 -26 14 -54 14 -25 0 -45 3 -45 6 0 4 -21 6 -47
5 -49 -2 -93 22 -93 50 0 7 -8 19 -18 26 -55 39 -24 59 112 69 54 4 104 13
109 18 8 8 3 11 -16 13 -47 2 -52 3 -57 9 -3 3 -32 15 -65 26 -71 23 -84 47
-33 61 22 6 47 5 73 -3 44 -13 63 -10 85 14 22 23 82 43 94 31 15 -15 29 -12
22 6 -3 8 -2 12 4 9 6 -3 10 -1 10 4 0 11 -39 16 -89 13 -32 -2 -47 12 -54 47
-4 19 -19 37 -42 51 -31 19 -35 26 -30 50 7 31 -21 70 -50 70 -28 0 -46 46
-52 137 -4 70 -2 95 10 119 13 25 15 61 13 191 l-3 161 -31 28 c-17 16 -39 36
-49 44 -30 25 -152 70 -192 70 -89 0 -120 31 -85 85 13 20 14 28 4 40 -8 9
-10 28 -5 54 4 24 2 41 -4 46 -6 3 -11 24 -11 46 0 21 -6 48 -12 59 -10 16
-10 24 0 40 17 28 15 63 -5 99 -13 23 -15 33 -7 39 7 4 13 16 15 26 7 35 89
70 194 82 45 6 85 23 85 37 0 16 35 54 46 50 13 -4 67 45 77 69 5 14 12 15 36
8 24 -7 31 -5 31 6 0 13 24 19 58 15 6 -1 12 3 12 10 0 8 4 8 13 1 10 -9 22
-3 50 24 35 35 57 38 57 8 0 -8 5 -14 10 -14 6 0 10 8 10 19 0 21 33 36 87 39
12 1 28 8 35 15 8 6 24 21 37 32 l24 20 -5 -28 -6 -29 33 32 c21 20 35 28 39
21 4 -6 4 -15 1 -21 -3 -5 0 -10 8 -10 8 0 20 14 27 30 13 30 13 30 28 9 9
-13 21 -19 33 -16z m384 -193 c3 -5 1 -10 -4 -10 -6 0 -11 5 -11 10 0 6 2 10
4 10 3 0 8 -4 11 -10z m-25 -231 c-7 -11 -14 -19 -16 -16 -7 7 7 37 17 37 6 0
5 -9 -1 -21z m-1310 -779 c20 0 9 -39 -17 -60 -35 -28 -87 -24 -91 6 -2 12
-13 25 -25 29 -18 6 -15 9 21 14 24 4 53 17 65 29 21 22 22 22 29 2 4 -11 12
-20 18 -20z m380 -630 c0 -23 -22 -27 -39 -7 -13 16 -5 27 21 27 11 0 18 -7
18 -20z m746 -1025 c-2 -7 1 -16 8 -18 35 -14 23 -154 -14 -164 -11 -3 -24
-20 -30 -39 -7 -19 -18 -34 -26 -34 -19 0 -18 49 1 56 10 4 13 13 10 25 -3 10
2 43 11 75 12 42 13 58 4 64 -13 8 -3 61 14 72 13 9 30 -18 22 -37z m28 -250
c-6 -16 -24 -21 -24 -7 0 11 11 22 21 22 5 0 6 -7 3 -15z m219 -125 c-3 -10
-11 -25 -19 -31 -8 -6 -14 -15 -14 -20 0 -16 -146 -149 -164 -149 -3 0 -6 16
-6 35 0 28 4 35 19 35 12 0 18 7 17 18 -1 13 8 18 36 20 31 3 43 11 78 58 44
56 62 68 53 34z m-214 -14 c13 -16 3 -76 -13 -76 -34 1 -50 46 -27 73 16 21
25 21 40 3z m231 -75 c0 -5 -7 -14 -15 -21 -12 -10 -15 -10 -15 2 0 8 3 18 7
21 9 10 23 9 23 -2z m-560 -77 c0 -22 -2 -25 -15 -14 -8 7 -15 19 -15 26 0 8
7 14 15 14 10 0 15 -10 15 -26z m1958 -320 c-1 -9 -9 -19 -17 -22 -8 -3 -11 0
-7 6 3 6 2 14 -4 17 -8 5 -7 11 1 21 15 18 32 4 27 -22z m-238 -180 c0 -8 -4
-12 -10 -9 -5 3 -10 10 -10 16 0 5 5 9 10 9 6 0 10 -7 10 -16z m-260 -40 c0
-8 -4 -12 -10 -9 -5 3 -10 10 -10 16 0 5 5 9 10 9 6 0 10 -7 10 -16z"/>
<path d="M2836 4425 c-3 -8 -1 -15 4 -15 13 0 22 18 11 24 -5 3 -11 -1 -15 -9z"/>
<path d="M3055 3243 c-13 -12 -21 -14 -34 -6 -9 5 -28 6 -44 2 -16 -4 -34 -6
-41 -3 -14 5 -114 -19 -157 -38 -22 -10 -27 -17 -23 -35 4 -14 2 -23 -5 -23
-6 0 -11 -7 -11 -16 0 -8 5 -12 10 -9 6 4 36 10 68 15 31 4 71 14 87 20 38 16
53 19 149 26 64 5 83 11 99 28 13 15 20 17 23 9 7 -17 24 -16 24 1 0 17 -41
29 -54 16 -13 -13 -29 -13 -21 0 3 6 -1 10 -9 10 -9 0 -16 5 -16 10 0 16 -27
12 -45 -7z"/>
<path d="M3250 3209 c0 -5 5 -7 10 -4 6 3 10 8 10 11 0 2 -4 4 -10 4 -5 0 -10
-5 -10 -11z"/>
<path d="M2842 3091 c-48 -13 -70 -25 -88 -48 l-24 -32 21 -6 c11 -4 26 -2 32
4 17 17 27 13 27 -8 0 -26 17 -36 35 -21 10 8 37 10 90 5 71 -7 78 -6 101 16
13 12 24 33 24 46 0 13 5 23 11 23 16 0 52 -21 72 -41 22 -23 76 -27 57 -4 -6
8 -9 18 -6 24 31 50 -214 79 -352 42z"/>
<path d="M2890 2960 c0 -5 5 -10 10 -10 6 0 10 5 10 10 0 6 -4 10 -10 10 -5 0
-10 -4 -10 -10z"/>
<path d="M2820 2920 c0 -14 50 -32 68 -25 11 4 12 8 2 20 -14 17 -70 21 -70 5z"/>
<path d="M2685 2456 c-18 -13 -17 -15 20 -25 22 -6 45 -11 52 -11 22 0 26 23
8 37 -24 17 -56 17 -80 -1z"/>
<path d="M2865 2220 c3 -5 11 -10 16 -10 6 0 7 5 4 10 -3 6 -11 10 -16 10 -6
0 -7 -4 -4 -10z"/>
<path d="M2932 2196 c7 -8 17 -12 22 -9 4 3 2 9 -5 14 -22 13 -31 11 -17 -5z"/>
<path d="M2934 2139 c-2 -4 -18 -10 -35 -14 -37 -8 -33 -29 6 -33 16 -2 44
-15 62 -29 18 -14 35 -24 36 -22 29 52 29 51 9 78 -18 25 -67 37 -78 20z"/>
<path d="M3225 1845 c-3 -8 -7 -22 -10 -30 -6 -20 9 -19 27 3 28 33 30 42 8
42 -11 0 -23 -7 -25 -15z"/>
<path d="M2670 1530 c0 -5 5 -10 10 -10 6 0 10 5 10 10 0 6 -4 10 -10 10 -5 0
-10 -4 -10 -10z"/>
</g>
</svg>
